# xmcd
#
# Track frame offsets:
#       150
#       19650
#       59315
#       146280
#       170425
#       229395
#
# Disc length: 4442 seconds
#
# Revision: 0
# Processed by: cddbd v1.5.1PL2 Copyright (c) Steve Scherf et al.
# Submitted via: WhereIsIt 3.51
#
DISCID=48115806
DTITLE=The Allman Brothers Band - Remasters
DYEAR=1980
DGENRE=Hard Rock
TTITLE0=Statesboro blues
TTITLE1=Stormy monday
TTITLE2=You don't love me
TTITLE3=Hot' lanta
TTITLE4=In memory of Elizabeth Reed
TTITLE5=Whipping post
EXTD=
EXTT0=
EXTT1=
EXTT2=
EXTT3=
EXTT4=
EXTT5=
PLAYORDER=
